# xmcd CD database file
#
# Track frame offsets:
#	150
#	10050
#	19647
#	30437
#	39972
#	49450
#	59285
#	68810
#	79322
#	90255
#	100677
#	110675
#	121270
#	131697
#	142475
#	153170
#	163720
#	174100
#	185275
#	195625
#	206622
#	216682
#	227420
#	242272
#	252980
#	263867
#	274952
#	285827
#	294760
#	305542
#	315520
#	325727
#	336277
#
# Disc length: 4684 seconds
#
# Revision: 1
# Processed by: cddbd v1.5.1PL0 Copyright (c) Steve Scherf et al.
# Submitted via: CDex 1.51
#
DISCID=c9124a21
DTITLE=Various Artist - Blue Note ever! - 65 Standard Hits
DYEAR=2005
DGENRE=Jazz
TTITLE0=Dear Old Srockholm -- Miles Davis
TTITLE1=I Wanted For You -- Miles Davis
TTITLE2=Bouncing With Bud -- Bud Powell
TTITLE3=Sure Thing -- Bud Powell
TTITLE4=Lover Man -- J.J. Johnson
TTITLE5=Minor's Holiday -- Jazz Messengers
TTITLE6=Like Someone In Love -- Jazz Messengers
TTITLE7=What's New -- Milt Jackson
TTITLE8=Ruby My Dear -- Thelonious Monk
TTITLE9=Ain't Misbehaven' -- Jutta Hipp
TTITLE10=Moonlight In Vermont -- Jutta Hipp
TTITLE11=I Remember You -- Horace Silver
TTITLE12='Round About Midnight -- Kenny Dorham
TTITLE13=Hymn Of Orient -- Clifford Brown
TTITLE14=If I Love Again -- Thad Jones
TTITLE15=Almost Like Being In Love -- Jutta Hipp
TTITLE16=These Foolish Things -- Johnny Griffin
TTITLE17=Lotus Flower -- Kenny Dorham
TTITLE18=How About You -- Kenny Burrell
TTITLE19=There Is No Greater Love -- Lou Donaldson
TTITLE20=Ill Wind -- Thad Jones
TTITLE21=Billie's Bounce -- Cliff Jordan
TTITLE22=You Stepped Out Of A Dream -- Sonny Rollins
TTITLE23=All The Things You Are -- Jonny Griffin
TTITLE24=Softly As In A Morning Sunlise -- Poul Chanbers
TTITLE25=Bags' Grove -- Hank Mobley
TTITLE26=Dear Old Stockholm -- Paul Chanbers
TTITLE27=Bud On Bach -- Bud Powel
TTITLE28=Speak Low -- Hank Mobley
TTITLE29=Moment's Notice -- John Coltrane
TTITLE30=I Don't Know What Time It Was -- Sonny Clark
TTITLE31=All The Way -- Lee Morgan
TTITLE32=Dancing In The Dark -- Cannonball Addaerley
EXTD=YEAR: 2005
EXTT0=
EXTT1=
EXTT2=
EXTT3=
EXTT4=
EXTT5=
EXTT6=
EXTT7=
EXTT8=
EXTT9=
EXTT10=
EXTT11=
EXTT12=
EXTT13=
EXTT14=
EXTT15=
EXTT16=
EXTT17=
EXTT18=
EXTT19=
EXTT20=
EXTT21=
EXTT22=
EXTT23=
EXTT24=
EXTT25=
EXTT26=
EXTT27=
EXTT28=
EXTT29=
EXTT30=
EXTT31=
EXTT32=
PLAYORDER=
